<svg width="156" height="34" viewBox="0 0 156 34" fill="none" xmlns="http://www.w3.org/2000/svg">
<path d="M95.5099 1.2793H97.4489V31.7774H94.4107V5.94325V4.86377L93.3343 4.94617C92.6533 4.9983 92.0726 5.3078 91.6211 5.80445C91.2369 6.22703 90.8401 6.86842 90.4282 7.65623C90.4271 7.6582 90.4261 7.66018 90.4251 7.66215L83.1941 21.0615L75.9569 7.65036L75.9564 7.64939C75.5162 6.8359 75.1163 6.18994 74.7616 5.77812C74.3201 5.26556 73.7384 4.95214 73.0539 4.89974L71.9776 4.81735V5.89682V31.7774H68.9393V1.2793H70.8783C72.2612 1.2793 73.2889 1.47158 74.0163 1.79608C74.7538 2.12508 75.4221 2.65109 76.0181 3.40596C76.6414 4.19549 77.3681 5.39586 78.1953 7.04217L78.1984 7.04834L82.3037 15.08L83.1941 16.8221L84.0845 15.08L88.1898 7.04835L88.1929 7.04216C89.0201 5.39585 89.7468 4.19549 90.3701 3.40596C90.9661 2.65109 91.6344 2.12508 92.3719 1.79608C93.0993 1.47158 94.127 1.2793 95.5099 1.2793ZM133.486 8.86808V31.7774H130.307V1.2793H134.975L147.999 28.5197L148.27 29.0884H148.901H149.134C149.523 29.0884 149.923 29.0061 150.285 28.7851C150.652 28.5608 150.91 28.2361 151.073 27.8694C151.355 27.2396 151.44 26.3128 151.44 25.2564V1.2793H154.618V26.0456C154.618 28.1606 154.179 29.574 153.466 30.4524C152.802 31.2703 151.687 31.7774 149.88 31.7774H146.637L135.386 8.43393L133.486 8.86808ZM11.7494 31.7774C8.00428 31.7774 5.52863 30.953 4.07449 29.532C2.60211 28.0931 1.78644 25.907 1.78644 22.7958V1.2793H5.29124V22.7958C5.29124 24.8708 5.75956 26.6086 6.90328 27.7868C8.05077 28.9688 9.73931 29.4598 11.7494 29.4598H21.1992V31.7774H11.7494ZM43.6697 32.3345C39.6894 32.3345 36.7961 31.4846 34.8464 29.9296C32.9211 28.3941 31.934 26.2607 31.934 23.3994V1.2793H35.4388V23.3994C35.4388 25.4984 36.1473 27.2261 37.666 28.4122C39.1406 29.5639 41.1925 30.0633 43.6697 30.0633C46.1469 30.0633 48.1989 29.5639 49.6734 28.4122C51.1921 27.2261 51.9006 25.4984 51.9006 23.3994V1.2793H55.4054V23.3994C55.4054 26.2607 54.4183 28.3941 52.493 29.9296C50.5433 31.4846 47.65 32.3345 43.6697 32.3345ZM112.102 1.2793H115.607V31.7774H112.102V1.2793Z" fill="url(#paint0_linear_1932_5078)" stroke="#292524" stroke-width="2"/>
<defs>
<linearGradient id="paint0_linear_1932_5078" x1="78.2025" y1="0.279297" x2="78.2025" y2="33.3345" gradientUnits="userSpaceOnUse">
<stop stop-color="#44403C"/>
<stop offset="1" stop-color="#1C1917"/>
</linearGradient>
</defs>
</svg>
